<?xml version="1.0" standalone="no"?>
<!DOCTYPE svg PUBLIC "-//W3C//DTD SVG 20010904//EN"
 "http://www.w3.org/TR/2001/REC-SVG-20010904/DTD/svg10.dtd">
<svg version="1.0" xmlns="http://www.w3.org/2000/svg"
 width="1496.000000pt" height="1496.000000pt" viewBox="0 0 1496.000000 1496.000000"
 preserveAspectRatio="xMidYMid meet">
<metadata>
Created by potrace 1.14, written by Peter Selinger 2001-2017
</metadata>
<g transform="translate(0.000000,1496.000000) scale(0.100000,-0.100000)"
fill="#000000" stroke="none">
<path d="M6915 14954 c-16 -2 -82 -8 -145 -14 -135 -13 -263 -28 -340 -40 -30
-5 -89 -14 -130 -20 -155 -23 -277 -46 -425 -80 -27 -6 -70 -16 -95 -21 -51
-12 -79 -18 -200 -49 -47 -12 -96 -26 -110 -30 -14 -4 -45 -13 -70 -20 -25 -7
-58 -17 -75 -21 -52 -15 -339 -109 -360 -118 -11 -5 -36 -14 -55 -21 -19 -7
-44 -16 -55 -20 -11 -5 -74 -29 -140 -55 -66 -26 -140 -56 -165 -67 -45 -20
-86 -38 -150 -65 -153 -66 -524 -259 -689 -359 -35 -22 -87 -52 -115 -67 -156
-87 -720 -484 -803 -565 -15 -15 -66 -57 -113 -94 -47 -36 -137 -112 -200
-169 -614 -553 -1114 -1176 -1534 -1913 -83 -144 -237 -452 -336 -671 -76
-168 -238 -601 -247 -662 -3 -21 -11 -45 -18 -53 -10 -13 -22 -47 -56 -167
-21 -75 -29 -104 -59 -218 -32 -118 -36 -134 -60 -245 -7 -30 -16 -73 -21 -95
-58 -259 -108 -603 -140 -966 -14 -161 -6 -1200 10 -1314 6 -44 16 -123 22
-175 6 -52 14 -120 19 -150 5 -30 14 -89 20 -130 10 -71 17 -109 41 -240 12
-65 24 -121 60 -277 27 -123 31 -139 80 -318 6 -22 15 -51 19 -65 4 -14 18
-59 30 -100 26 -88 82 -257 105 -321 9 -24 26 -69 37 -99 11 -30 24 -64 28
-75 5 -11 28 -72 53 -135 25 -63 61 -150 81 -193 20 -42 36 -79 36 -82 0 -11
187 -385 242 -484 32 -58 58 -106 58 -108 0 -1 41 -71 90 -154 193 -321 449
-682 684 -964 154 -184 406 -457 418 -453 5 2 41 64 79 138 38 74 75 142 82
150 7 9 82 74 167 145 289 241 466 397 710 630 70 66 152 135 184 154 105 63
315 119 656 176 246 41 297 62 337 138 9 17 78 209 155 427 172 489 204 573
227 594 10 9 47 21 82 27 128 22 185 73 256 226 116 255 176 522 219 975 9 97
14 188 10 202 -9 36 -38 34 -164 -8 -124 -42 -206 -60 -238 -52 -42 11 -48 47
-28 172 9 61 14 123 10 138 -4 15 -38 60 -76 102 -84 91 -89 110 -61 231 41
180 55 317 55 558 0 258 -7 335 -69 755 -24 162 -50 342 -57 400 -28 229 -7
1468 33 1900 23 258 88 489 207 748 97 208 199 451 206 490 6 34 -2 39 -35 22
-22 -12 -31 -6 -289 200 -80 63 -181 143 -225 177 -91 70 -82 46 -135 338 -5
28 -14 77 -20 110 -7 33 -15 80 -20 105 -5 25 -13 71 -19 103 -6 31 -16 83
-22 115 -6 31 -15 76 -20 99 -16 76 -12 100 24 126 17 13 44 28 59 35 30 12
-9 72 331 -503 71 -121 142 -240 157 -265 15 -25 87 -146 160 -270 73 -124
167 -280 207 -348 l74 -123 -11 -272 c-17 -433 -33 -559 -120 -937 -66 -289
-64 -248 -61 -1105 1 -429 4 -800 7 -825 9 -65 27 -90 68 -90 36 0 151 40 191
66 48 31 48 36 31 581 -9 279 -21 570 -26 647 -5 76 -7 164 -5 195 3 31 14
227 26 436 11 209 22 389 24 400 6 31 201 142 405 233 25 11 66 29 91 40 62
29 145 61 199 78 25 8 54 19 65 23 11 5 54 19 95 31 41 12 86 26 100 30 23 8
154 40 245 60 22 5 72 14 110 21 39 6 92 15 119 20 27 5 51 8 53 6 2 -2 -39
-125 -91 -273 -307 -880 -426 -1314 -536 -1957 -88 -508 -149 -694 -298 -905
-52 -75 -52 -97 -2 -199 36 -72 73 -107 104 -97 31 10 184 142 227 196 48 61
148 263 195 393 60 168 89 299 219 1001 150 807 224 1198 266 1394 94 443 257
1008 442 1535 83 236 94 280 70 289 -9 4 -17 5 -18 4 -1 -2 -27 -37 -57 -78
-31 -41 -61 -86 -68 -99 -12 -23 -13 -24 -26 -7 -7 10 -34 71 -59 135 -26 64
-53 131 -61 149 -8 17 -20 47 -28 65 -53 120 -95 239 -90 254 3 10 9 27 14 38
4 11 36 92 70 180 34 88 71 179 81 202 10 24 19 46 19 51 0 4 33 91 74 192 81
201 77 197 163 199 80 2 73 67 73 -675 0 -365 3 -664 6 -664 3 0 29 20 56 45
28 25 67 49 90 56 36 9 44 8 69 -10 16 -12 31 -21 34 -21 2 0 6 285 7 633 l3
632 60 3 c33 2 75 0 93 -3 l32 -6 0 -626 c0 -624 0 -626 -20 -601 -25 33 -79
56 -89 39 -8 -12 -16 -78 -66 -506 -36 -303 -63 -433 -156 -743 -101 -336
-191 -674 -229 -863 -111 -550 -189 -1724 -151 -2280 10 -139 27 -186 94 -265
33 -38 120 -94 130 -84 3 3 -4 50 -15 105 -18 88 -19 125 -14 310 11 395 35
684 121 1485 115 1056 111 1025 156 1268 l21 112 37 0 c42 0 119 -13 316 -52
193 -38 480 -125 622 -189 24 -10 45 -19 48 -19 13 0 273 -125 370 -178 106
-58 218 -128 222 -138 2 -7 -11 -36 -30 -65 -155 -244 -421 -719 -797 -1424
-425 -797 -494 -916 -673 -1165 -104 -146 -145 -224 -192 -363 -47 -142 -52
-176 -27 -207 18 -22 27 -25 85 -23 72 1 163 24 217 54 24 14 54 50 97 117
104 165 129 220 211 457 172 500 246 675 561 1329 397 826 473 960 979 1736
233 357 290 456 275 471 -19 19 -45 -6 -145 -135 -56 -72 -103 -133 -104 -135
-4 -4 -37 17 -79 52 -23 19 -27 28 -19 38 6 8 23 34 36 59 54 97 250 435 257
445 5 5 22 35 38 65 17 30 81 142 142 248 61 105 161 279 222 385 61 105 125
217 142 247 51 93 66 111 85 101 9 -5 39 -19 67 -31 l49 -22 23 28 c28 36 47
80 40 96 -2 7 -75 54 -162 103 -87 50 -176 101 -199 114 -89 52 -107 61 -119
61 -15 0 -76 -100 -71 -115 3 -6 29 -29 59 -51 30 -21 55 -43 55 -47 0 -5 -8
-21 -18 -35 -10 -15 -61 -101 -112 -192 -51 -91 -101 -176 -110 -190 -9 -14
-31 -50 -47 -80 -17 -30 -81 -142 -142 -247 -270 -468 -335 -581 -359 -623
-27 -49 -113 -193 -118 -199 -2 -2 -33 9 -70 23 -50 20 -69 24 -80 15 -22 -18
-65 -102 -57 -110 5 -4 80 -49 168 -100 88 -50 176 -101 195 -112 19 -11 48
-27 63 -35 l28 -14 -35 -46 c-20 -26 -71 -100 -113 -164 -43 -65 -82 -118 -87
-118 -4 0 -54 28 -110 62 -200 123 -544 286 -726 344 -25 8 -54 19 -65 23 -11
5 -54 19 -95 31 -41 12 -86 26 -100 30 -48 16 -244 61 -340 79 -30 5 -79 14
-108 20 -30 6 -71 11 -92 11 -21 0 -41 3 -43 8 -3 4 13 61 34 127 22 66 52
163 67 215 l28 95 211 3 c209 2 211 3 217 25 9 34 7 86 -4 106 -6 12 -26 21
-60 25 -28 4 -57 9 -65 12 -13 5 -15 120 -15 914 l0 908 61 4 c45 3 65 10 75
23 16 22 18 88 4 116 -10 18 -28 19 -653 19 -487 0 -646 -3 -655 -12 -16 -16
-15 -110 1 -130 7 -9 35 -18 66 -21 29 -4 56 -9 59 -12 3 -3 -2 -27 -12 -53
-10 -26 -36 -96 -58 -157 -22 -60 -58 -159 -80 -220 -22 -60 -53 -146 -68
-189 l-28 -80 -16 38 c-9 21 -16 41 -16 45 0 3 -14 42 -31 86 -17 44 -40 105
-51 135 -11 30 -24 64 -28 75 -4 11 -17 45 -28 75 -11 30 -36 96 -55 145 -20
50 -32 93 -28 98 4 4 39 10 77 14 38 3 75 10 82 16 19 15 16 133 -4 141 -9 3
-140 6 -293 6 -202 0 -280 -3 -289 -12 -16 -16 -16 -123 1 -135 6 -6 34 -13
62 -17 27 -3 55 -12 62 -19 6 -6 57 -127 113 -267 56 -140 108 -268 116 -284
8 -16 14 -33 14 -38 0 -4 9 -27 19 -51 65 -144 102 -244 98 -262 -3 -11 -18
-56 -35 -100 -58 -153 -94 -250 -102 -275 -5 -14 -22 -61 -38 -105 -76 -203
-94 -252 -102 -275 -5 -14 -17 -50 -28 -80 -22 -58 -23 -59 -135 -84 -28 -7
-28 -7 -25 -74 l3 -67 218 -3 c243 -3 220 -11 219 77 -1 63 -5 67 -65 75 -76
8 -88 14 -77 34 10 21 37 91 56 152 8 25 19 54 24 65 7 19 19 49 70 190 93
256 105 285 112 285 5 0 8 -6 8 -12 0 -7 13 -47 29 -88 16 -41 52 -135 80
-207 28 -73 74 -192 102 -264 59 -149 60 -144 -37 -154 -33 -4 -66 -10 -73
-14 -8 -5 -11 -30 -9 -72 l3 -64 67 -3 67 -3 -60 -172 c-34 -95 -68 -191 -76
-214 -16 -46 -18 -47 -143 -63 -182 -22 -343 -55 -540 -109 -114 -31 -334
-105 -410 -138 -19 -8 -44 -19 -55 -23 -76 -30 -312 -144 -377 -182 -41 -24
-48 -25 -48 -10 0 9 5 94 11 187 11 147 10 177 -3 222 l-16 52 87 52 c47 29
100 60 117 70 61 34 74 44 74 56 0 13 -58 113 -66 113 -2 0 -31 -11 -64 -24
l-60 -24 -18 26 c-10 15 -45 72 -77 127 -32 55 -70 120 -85 145 -15 25 -86
145 -159 268 -72 122 -190 322 -263 445 -72 122 -154 260 -181 307 -28 47 -67
113 -89 147 -21 34 -38 67 -38 72 0 5 20 26 45 47 25 20 45 43 45 51 0 23 -51
103 -66 103 -7 0 -60 -28 -116 -61 -57 -34 -116 -70 -133 -79 -16 -9 -77 -45
-135 -80 -58 -35 -118 -71 -135 -80 -116 -67 -155 -93 -155 -104 0 -19 50
-107 65 -112 6 -3 33 5 60 16 27 11 52 17 56 13 4 -4 13 -35 19 -68 25 -127
30 -151 40 -195 6 -25 15 -67 20 -95 5 -27 14 -70 20 -95 6 -25 15 -67 20 -95
5 -27 14 -70 19 -95 5 -25 8 -46 7 -48 -4 -3 -540 448 -544 458 -1 4 25 26 58
51 33 24 60 49 60 56 0 21 -63 113 -77 113 -8 0 -34 -13 -58 -30 -24 -16 -46
-30 -48 -30 -3 0 -64 -36 -137 -80 -73 -44 -134 -80 -136 -80 -11 0 -84 -54
-84 -61 0 -13 70 -119 78 -119 5 0 12 4 17 8 6 5 29 14 51 21 l41 13 367 -293
c401 -321 370 -288 396 -424 6 -33 16 -79 21 -102 5 -24 13 -62 18 -85 5 -24
15 -70 21 -103 20 -101 31 -158 42 -205 19 -91 27 -126 38 -185 6 -33 15 -74
20 -92 7 -30 5 -35 -36 -68 -24 -20 -44 -43 -44 -51 0 -13 58 -114 66 -114 2
0 49 27 104 60 55 33 102 60 104 60 2 0 -7 -30 -21 -67 -65 -179 -147 -499
-173 -677 -12 -77 -13 -80 -84 -165 -82 -98 -203 -257 -263 -346 -110 -166
-257 -432 -327 -595 -16 -36 -39 -89 -52 -118 -13 -29 -24 -56 -24 -60 0 -4
-14 -43 -31 -86 -22 -56 -34 -109 -40 -177 -5 -53 -16 -112 -23 -131 -17 -38
-10 -55 -51 137 -55 259 -67 313 -90 395 -13 47 -37 118 -54 157 l-30 73 46
77 c25 43 56 95 69 115 13 21 24 42 24 48 0 13 -90 70 -111 70 -8 0 -30 -20
-49 -45 -19 -25 -37 -45 -40 -45 -7 0 -55 53 -320 354 -152 173 -179 208 -154
201 28 -8 43 -11 167 -34 31 -6 83 -16 115 -22 31 -6 75 -15 97 -19 22 -4 67
-13 100 -20 33 -6 83 -15 110 -21 28 -5 67 -12 88 -15 20 -4 37 -10 37 -15 0
-5 -11 -33 -25 -63 -14 -30 -25 -61 -25 -68 0 -17 104 -78 117 -69 5 3 34 49
65 101 30 52 87 150 127 216 39 67 71 128 71 135 0 8 -25 28 -56 44 l-56 30
-38 -43 c-43 -48 -40 -47 -185 -22 -47 9 -77 14 -235 40 -151 25 -188 32 -235
40 -62 11 -148 26 -240 40 -138 22 -124 11 -315 241 -96 116 -223 267 -282
337 -60 70 -108 134 -108 143 0 9 7 33 15 52 8 20 15 41 15 47 0 14 -89 70
-111 70 -9 0 -27 -17 -40 -37 -68 -115 -159 -276 -159 -284 0 -12 91 -69 111
-69 8 0 30 20 49 45 19 25 35 45 36 45 1 0 98 -109 215 -242 117 -134 224
-256 238 -272 l26 -29 -40 8 c-22 3 -58 10 -80 15 -22 4 -67 13 -100 20 -33 7
-78 16 -100 20 -22 4 -65 13 -95 19 -30 6 -109 22 -175 36 -66 13 -122 25
-124 25 -2 0 1 6 6 13 18 23 55 126 49 135 -9 15 -93 62 -110 62 -8 0 -21 -12
-29 -27 -18 -36 -114 -201 -189 -327 -56 -94 -58 -99 -42 -117 9 -11 22 -19
28 -19 6 0 22 -9 36 -20 14 -11 28 -20 33 -20 4 0 27 20 50 45 l42 44 80 -15
c144 -27 166 -31 362 -65 29 -5 77 -13 105 -18 29 -5 85 -15 123 -21 39 -6 86
-16 106 -21 20 -5 47 -9 60 -9 76 0 90 -12 291 -242 106 -122 236 -271 288
-331 88 -101 99 -118 141 -225 31 -75 54 -118 65 -123 17 -6 17 -8 3 -14 -14
-5 -15 -13 -8 -44 5 -21 25 -130 44 -242 20 -112 39 -207 43 -211 4 -3 16 -8
27 -11 17 -4 17 -5 -4 -6 -22 -1 -23 -4 -18 -46 18 -126 214 -910 242 -965 19
-36 51 -64 124 -105 111 -62 115 -40 25 168 -93 217 -104 284 -74 447 5 30 15
93 20 140 9 72 20 104 70 208 33 68 60 128 60 133 0 5 -6 9 -14 9 -10 0 -6 22
19 93 105 299 233 550 428 844 45 67 82 121 84 120 3 -4 -34 -273 -62 -447
-62 -385 -74 -633 -56 -1165 10 -294 9 -349 -4 -410 -21 -98 -60 -171 -124
-236 -68 -67 -141 -104 -249 -127 -69 -14 -92 -15 -159 -4 -43 6 -87 14 -98
17 -14 3 -27 -5 -44 -26 l-24 -30 21 -28 c23 -32 18 -47 -19 -56 -24 -6 -27
-3 -32 32 -11 63 -8 86 13 108 l20 21 -59 34 c-93 52 -135 101 -180 211 -104
255 -141 401 -181 714 -17 132 -37 283 -45 335 -42 274 -69 537 -81 792 -5
115 -9 139 -25 154 -26 24 -65 11 -115 -39 -36 -37 -43 -51 -50 -102 -11 -74
-12 -933 -1 -1187 l7 -188 -27 -6 c-16 -4 -32 -10 -38 -13 -5 -4 -28 -13 -50
-20 -22 -7 -49 -16 -60 -21 -19 -7 -51 -19 -190 -70 -30 -11 -80 -29 -110 -40
-133 -48 -171 -62 -190 -70 -11 -4 -36 -13 -55 -20 -19 -7 -44 -16 -55 -20
-152 -60 -144 -59 -240 -24 -39 14 -117 41 -175 60 -58 19 -114 39 -125 44
-11 5 -67 25 -125 44 -58 20 -157 53 -220 75 l-114 39 -16 59 -15 58 -58 3
c-33 2 -65 -2 -72 -8 -10 -9 -14 -53 -15 -184 -1 -201 -2 -199 86 -194 l58 3
14 55 c7 30 16 57 18 59 4 4 49 -10 354 -110 80 -26 184 -59 233 -74 48 -15
87 -28 87 -29 0 -2 -100 -35 -222 -75 -123 -40 -231 -77 -240 -82 -10 -5 -25
-9 -33 -9 -8 0 -23 -4 -33 -9 -9 -5 -39 -16 -67 -24 -27 -8 -57 -18 -66 -22
-13 -5 -18 7 -29 67 -7 40 -18 76 -24 80 -18 12 -111 9 -124 -4 -17 -17 -17
-839 0 -856 16 -16 113 -16 126 1 8 10 24 78 26 112 1 7 309 11 897 13 l896 2
7 -31 c3 -17 6 -42 6 -55 0 -35 26 -54 75 -54 78 0 75 -7 75 174 l1 161 44
-142 c25 -78 65 -194 90 -258 68 -175 93 -257 121 -400 14 -71 27 -140 30
-152 2 -13 11 -23 19 -23 13 0 55 -50 55 -65 0 -4 -14 -3 -32 0 l-31 7 6 -68
c11 -112 20 -309 14 -304 -3 3 -28 46 -57 95 -28 50 -60 99 -69 110 -10 11
-24 36 -31 55 -8 19 -19 38 -24 42 -12 8 -94 -35 -113 -59 -9 -11 -8 -22 3
-48 8 -19 14 -36 14 -39 0 -2 -36 -25 -81 -51 -56 -32 -79 -51 -75 -61 19 -46
19 -50 5 -33 -28 32 -46 27 -160 -38 -63 -36 -128 -73 -145 -83 -17 -10 -64
-38 -105 -63 -41 -24 -94 -55 -119 -69 -25 -14 -61 -34 -80 -45 -46 -27 -276
-160 -315 -183 -34 -20 -263 -153 -312 -181 -18 -11 -50 -29 -70 -40 -21 -12
-47 -28 -58 -35 -28 -20 -44 -17 -67 11 -11 14 -28 25 -37 25 -24 0 -111 -49
-111 -62 0 -6 19 -43 41 -82 141 -241 193 -330 289 -496 183 -316 191 -330
202 -330 6 0 33 14 61 32 52 33 55 44 32 116 -5 14 -3 22 4 22 6 0 33 9 59 21
26 12 56 25 67 29 11 4 36 15 55 23 19 8 116 48 215 87 99 39 196 79 215 87
43 18 78 33 105 43 11 5 36 15 55 23 19 8 105 43 190 77 85 34 168 68 184 76
16 8 33 14 38 14 5 0 27 9 48 19 22 11 40 15 40 10 0 -9 -38 -40 -249 -204
-57 -44 -146 -114 -199 -156 -318 -249 -600 -468 -618 -479 -20 -12 -25 -10
-54 23 -18 20 -39 37 -48 37 -13 0 -112 -57 -112 -65 0 -1 29 -54 65 -116 l65
-114 -37 -32 c-21 -18 -43 -32 -49 -33 -24 0 -318 460 -451 705 -47 88 -189
373 -222 448 -26 58 -59 132 -76 172 -24 53 -106 268 -125 325 -10 30 -25 73
-33 95 -8 22 -30 87 -47 145 -18 58 -36 116 -41 130 -15 42 -95 356 -119 465
-6 28 -15 68 -20 90 -8 38 -17 89 -40 225 -5 33 -14 86 -20 118 -20 124 -43
336 -61 572 -13 176 -7 839 10 1010 24 244 35 338 61 500 41 251 61 349 117
570 30 118 57 226 60 240 2 14 8 34 13 45 5 11 41 115 79 230 39 116 88 255
111 309 22 55 40 103 40 107 0 9 23 61 96 217 24 51 44 98 44 105 0 6 7 21 15
31 8 11 15 28 15 38 0 10 4 18 9 18 5 0 30 42 56 93 26 50 67 129 91 173 24
45 42 89 39 97 -4 9 1 16 12 19 10 3 47 54 83 114 79 134 241 378 330 499 36
50 75 102 86 117 112 153 342 416 548 627 550 560 1137 984 1842 1332 121 60
224 109 227 109 4 0 35 13 69 28 35 16 124 52 198 81 74 29 144 57 155 61 37
16 170 62 200 70 17 4 64 19 105 32 41 14 95 31 120 38 25 7 56 16 70 20 25 8
71 20 145 38 22 6 58 15 80 21 22 5 60 14 85 20 25 5 65 14 90 20 68 15 226
45 315 60 230 38 401 57 715 81 173 13 605 13 780 0 230 -17 382 -31 450 -40
36 -5 101 -14 145 -20 44 -6 100 -15 125 -20 25 -5 79 -14 120 -20 41 -7 89
-16 105 -20 17 -4 57 -13 90 -20 69 -14 295 -68 340 -81 73 -21 173 -50 210
-61 70 -20 237 -76 325 -109 47 -17 95 -34 108 -36 12 -3 25 -9 28 -14 3 -5
12 -9 20 -9 8 0 36 -9 62 -21 26 -12 56 -25 67 -29 39 -16 100 -42 233 -101
393 -176 861 -455 1235 -736 76 -57 161 -118 190 -134 29 -17 86 -65 127 -108
41 -42 147 -142 234 -221 209 -190 465 -464 662 -710 331 -412 651 -927 853
-1372 75 -165 88 -195 101 -228 7 -19 17 -39 22 -45 4 -5 8 -15 8 -22 0 -7 9
-32 19 -56 43 -97 172 -462 202 -574 5 -18 13 -48 18 -65 15 -52 52 -189 61
-228 5 -19 11 -46 15 -60 33 -129 78 -351 96 -475 17 -116 22 -128 60 -148 20
-11 25 -16 13 -14 -45 9 -48 -3 -35 -120 26 -229 31 -284 42 -488 22 -401 -5
-932 -71 -1355 -6 -36 -12 -81 -15 -100 -8 -53 -38 -208 -55 -285 -16 -72 -31
-139 -40 -175 -5 -19 -14 -57 -20 -85 -7 -27 -15 -61 -20 -75 -4 -14 -13 -45
-20 -70 -7 -25 -16 -56 -20 -70 -4 -14 -22 -72 -40 -130 -35 -116 -78 -240
-117 -340 -14 -36 -32 -85 -40 -110 -9 -25 -28 -73 -44 -108 -16 -34 -29 -65
-29 -67 0 -2 -11 -28 -24 -57 -13 -29 -34 -75 -46 -103 -35 -79 -156 -323
-196 -395 -20 -36 -48 -87 -63 -115 -259 -469 -643 -979 -1057 -1405 -126
-128 -168 -178 -166 -194 2 -15 0 -17 -6 -7 -12 17 -35 5 -81 -43 -20 -21 -31
-41 -28 -50 4 -10 1 -13 -8 -10 -7 3 -44 -20 -82 -51 -168 -139 -406 -326
-488 -385 -49 -35 -112 -80 -140 -100 -83 -59 -400 -260 -411 -260 -2 0 -21
-11 -42 -24 -78 -51 -463 -248 -602 -309 -19 -8 -55 -24 -80 -35 -25 -11 -110
-46 -190 -77 -80 -31 -154 -61 -165 -65 -11 -5 -40 -16 -65 -24 -25 -8 -63
-21 -85 -29 -22 -9 -87 -30 -145 -47 -58 -18 -116 -36 -130 -40 -14 -4 -45
-13 -70 -20 -25 -7 -56 -16 -70 -20 -14 -5 -65 -18 -115 -30 -49 -11 -106 -25
-125 -30 -207 -52 -557 -110 -845 -139 -262 -26 -454 -33 -775 -28 -368 7
-519 17 -820 57 -128 17 -380 60 -465 79 -22 5 -65 14 -95 21 -65 14 -120 27
-175 41 -22 6 -52 13 -68 16 -15 3 -29 9 -32 13 -7 11 95 91 221 175 102 69
295 167 540 275 134 60 329 140 339 140 3 0 4 -107 3 -237 l-3 -238 -54 -8
c-73 -10 -81 -18 -81 -88 0 -52 2 -59 23 -64 12 -3 180 -4 372 -3 l350 3 3 64
c2 35 -1 68 -6 73 -5 5 -37 13 -72 18 -34 5 -64 11 -66 13 -2 2 5 51 17 108
12 57 25 122 29 144 10 51 49 238 61 290 5 22 12 59 16 82 3 24 11 47 17 51 6
5 71 30 145 56 146 51 146 51 156 -14 3 -19 10 -53 15 -75 5 -22 17 -76 26
-120 9 -44 20 -98 25 -120 5 -22 14 -65 19 -95 16 -87 26 -139 44 -224 10 -43
15 -80 12 -83 -3 -3 -35 -9 -71 -12 -36 -4 -70 -12 -76 -18 -5 -5 -9 -38 -7
-74 l3 -64 265 0 265 0 3 65 c3 73 -8 90 -62 90 -51 0 -50 0 -85 150 -21 91
-49 217 -61 275 -7 33 -21 92 -32 130 -10 39 -25 106 -33 150 -8 44 -19 100
-24 125 -5 25 -6 48 -3 52 4 3 48 24 98 46 129 57 281 134 578 294 443 238
616 321 1001 478 l195 79 11 -42 c6 -23 17 -60 24 -82 7 -22 22 -74 34 -115
12 -41 26 -86 31 -100 4 -14 18 -59 30 -100 12 -41 25 -86 30 -100 4 -14 18
-59 30 -100 12 -41 25 -86 30 -100 4 -14 18 -59 30 -100 12 -41 25 -86 30
-100 4 -14 18 -59 30 -100 11 -41 25 -85 31 -98 16 -40 10 -59 -31 -96 -45
-40 -50 -68 -20 -106 11 -14 20 -30 20 -36 0 -28 33 -18 131 39 57 33 139 80
182 105 44 25 81 52 85 60 7 18 -36 102 -56 110 -15 5 -63 -9 -123 -38 l-37
-17 -21 66 c-11 36 -30 98 -42 136 -11 39 -29 95 -39 125 -9 30 -27 89 -40
130 -13 41 -31 100 -41 130 -9 30 -32 102 -49 160 -17 58 -40 130 -49 160 -10
30 -28 89 -41 130 -12 41 -26 86 -32 99 -11 29 -7 33 59 57 l53 18 31 -30 c54
-51 784 -824 787 -833 2 -5 -29 -33 -68 -61 -38 -29 -70 -58 -69 -64 1 -22 56
-101 71 -104 9 -2 34 8 55 21 21 14 94 58 163 98 162 95 166 98 238 139 34 19
62 38 62 42 0 5 -14 33 -31 63 -30 53 -52 66 -74 47 -6 -5 -29 -15 -53 -22
l-43 -14 -73 75 c-40 41 -222 225 -404 410 l-332 335 127 49 c189 71 1016 403
1178 473 77 33 197 88 268 121 112 54 127 65 127 86 0 24 -3 25 -55 25 -74 0
-191 -45 -410 -159 -200 -104 -303 -146 -719 -291 -1032 -360 -1338 -482
-1926 -770 -861 -422 -1074 -489 -2135 -675 -476 -84 -608 -118 -880 -227
-287 -116 -487 -222 -653 -345 -42 -31 -205 -184 -362 -338 -157 -155 -313
-303 -347 -329 -35 -27 -60 -53 -57 -57 7 -12 63 -37 209 -94 66 -26 129 -50
140 -55 11 -4 46 -17 78 -29 31 -12 81 -30 110 -40 78 -29 251 -81 269 -81 8
0 33 -7 54 -16 22 -9 54 -21 72 -25 17 -5 47 -13 65 -18 17 -5 61 -17 97 -26
36 -9 81 -20 100 -25 19 -5 55 -13 80 -19 25 -5 65 -14 90 -20 25 -5 70 -15
100 -21 30 -7 73 -16 95 -20 48 -10 133 -25 235 -40 41 -6 100 -15 130 -20 30
-5 96 -14 145 -19 50 -6 137 -16 195 -23 147 -18 1273 -18 1420 0 58 7 146 17
195 23 50 5 115 14 145 19 30 5 89 14 130 20 186 28 307 52 555 110 50 12 110
26 135 32 25 5 56 13 70 18 14 4 45 13 70 20 25 7 56 16 70 20 14 4 45 13 70
20 59 17 339 108 365 119 11 5 45 18 75 29 88 32 291 112 340 134 25 11 60 26
78 34 17 8 49 21 70 30 184 80 547 271 782 412 940 564 1763 1351 2378 2274
98 147 292 461 292 473 0 2 14 28 31 57 41 68 196 373 233 458 16 36 40 90 54
120 44 98 52 119 77 183 13 35 33 83 44 108 41 90 89 236 96 294 7 64 20 95
41 108 17 10 18 44 2 49 -9 3 -9 12 0 37 7 18 9 44 6 57 -4 14 -1 31 7 40 12
15 14 14 20 -7 3 -13 2 -29 -4 -36 -5 -7 -7 -18 -5 -25 3 -7 15 10 27 37 21
48 22 68 6 125 -6 21 -5 23 6 13 22 -21 26 -15 34 42 3 30 10 55 15 55 16 0
22 41 8 57 -9 12 -9 15 -1 9 8 -4 16 1 22 16 8 21 41 157 60 253 9 42 23 101
41 175 6 25 12 65 14 90 2 25 11 77 20 115 31 125 60 344 87 656 13 155 6
1202 -9 1304 -6 39 -15 117 -22 175 -6 58 -15 130 -20 160 -5 30 -14 89 -20
130 -7 41 -15 95 -20 120 -5 25 -14 74 -20 110 -6 36 -16 84 -21 108 -5 23
-13 61 -18 85 -16 70 -32 140 -41 177 -24 97 -53 208 -60 230 -4 14 -13 43
-19 65 -45 165 -138 441 -198 590 -11 28 -38 95 -58 150 -21 55 -56 137 -77
182 -21 46 -38 85 -38 88 0 3 -41 90 -92 193 -489 994 -1177 1859 -2029 2548
-64 52 -119 94 -123 94 -5 0 -30 20 -56 43 -89 80 -444 323 -670 459 -211 127
-318 185 -565 307 -165 81 -204 99 -290 136 -16 7 -50 22 -75 33 -25 11 -99
41 -165 67 -66 26 -129 50 -140 55 -11 4 -36 13 -55 20 -19 7 -44 16 -55 21
-26 11 -307 102 -365 119 -25 7 -56 16 -70 20 -68 20 -102 29 -180 49 -114 30
-146 38 -202 50 -27 6 -67 15 -90 21 -24 5 -68 14 -98 20 -30 7 -73 16 -95 20
-48 10 -133 25 -235 40 -41 6 -101 16 -132 22 -31 6 -64 8 -73 5 -8 -4 -27 -2
-42 4 -14 5 -72 14 -127 20 -271 26 -310 29 -317 18 -5 -8 -8 -8 -13 0 -5 8
-115 11 -367 11 l-360 0 15 -22 c26 -36 18 -39 -16 -7 l-32 29 -126 -1 c-69
-1 -138 -3 -155 -5z m395 -94 c0 -5 -4 -10 -10 -10 -5 0 -10 5 -10 10 0 6 5
10 10 10 6 0 10 -4 10 -10z m1065 -220 c10 -11 16 -20 13 -20 -3 0 -13 9 -23
20 -10 11 -16 20 -13 20 3 0 13 -9 23 -20z m-1065 -179 l0 -148 -162 -7 c-90
-3 -201 -9 -248 -12 l-86 -6 -12 108 c-7 60 -15 123 -17 140 -4 40 -6 40 260
54 178 9 231 13 258 19 4 0 7 -66 7 -148z m605 129 c111 -5 209 -12 219 -16
14 -5 17 -14 12 -38 -4 -17 -11 -78 -16 -135 -5 -57 -12 -106 -14 -109 -3 -2
-70 1 -148 7 -79 7 -185 13 -236 14 l-94 2 0 140 c0 77 1 143 1 148 1 4 18 5
39 2 20 -3 127 -9 237 -15z m-1246 -157 c6 -61 13 -122 16 -135 6 -24 5 -25
-82 -37 -48 -6 -113 -16 -143 -21 -30 -4 -86 -14 -125 -20 -38 -6 -90 -15
-115 -20 -121 -24 -118 -24 -125 12 -13 70 -27 134 -36 169 -18 73 -14 86 34
92 23 3 69 11 102 17 219 41 444 70 457 60 4 -3 12 -55 17 -117z m1791 107
c30 -5 87 -14 127 -21 39 -6 79 -9 88 -5 10 3 23 2 30 -4 6 -5 51 -17 99 -27
71 -14 86 -20 81 -32 -4 -9 -11 -38 -16 -66 -5 -27 -13 -68 -18 -90 -5 -22
-12 -55 -16 -74 -9 -37 5 -36 -135 -11 -169 29 -274 45 -395 58 l-59 7 3 55
c1 30 7 77 12 104 5 27 9 67 9 89 l0 39 68 -6 c37 -4 92 -11 122 -16z m655
-122 c28 -6 79 -19 115 -28 36 -10 103 -28 150 -40 47 -12 110 -31 141 -41 30
-11 63 -19 72 -19 21 0 21 -2 -1 -70 -10 -30 -29 -90 -43 -133 -21 -68 -26
-77 -44 -72 -32 10 -77 23 -120 35 -22 6 -53 15 -70 20 -16 5 -77 20 -135 35
-58 14 -121 30 -141 35 -20 6 -46 10 -57 10 -29 0 -35 15 -24 53 5 17 15 59
22 92 27 139 30 145 59 139 14 -3 49 -10 76 -16z m-3191 0 c2 -7 9 -40 16 -73
6 -33 16 -78 20 -100 22 -101 25 -91 -28 -104 -26 -7 -65 -17 -87 -22 -22 -6
-53 -14 -70 -18 -16 -5 -68 -19 -115 -31 -47 -12 -110 -30 -140 -40 -59 -19
-110 -32 -110 -28 0 2 -20 62 -45 133 -24 72 -40 134 -35 138 4 5 23 12 41 17
19 5 66 18 104 30 92 27 288 80 344 91 24 5 47 11 49 14 11 10 53 5 56 -7z
m3872 -197 c33 -10 79 -27 104 -36 25 -9 81 -31 125 -47 44 -17 94 -36 110
-43 17 -7 62 -26 100 -41 39 -15 72 -29 74 -30 7 -6 -104 -247 -116 -251 -7
-3 -66 16 -130 42 -136 55 -253 98 -336 125 -94 31 -91 19 -41 165 24 72 44
131 44 133 0 4 6 2 66 -17z m-4577 -38 c8 -27 27 -88 43 -137 16 -48 28 -89
26 -90 -2 -1 -21 -7 -43 -14 -22 -8 -49 -17 -60 -22 -11 -4 -45 -17 -75 -28
-109 -39 -226 -86 -288 -114 -34 -15 -68 -28 -75 -28 -6 0 -37 58 -68 128 -64
145 -67 132 46 176 39 15 84 34 100 41 109 47 342 132 365 134 10 1 20 -15 29
-46z m5449 -329 c128 -64 232 -119 232 -123 0 -3 -25 -48 -55 -99 -30 -51 -55
-96 -55 -100 0 -4 -7 -15 -15 -26 -13 -17 -25 -12 -239 94 -124 62 -226 114
-226 115 0 2 9 20 20 42 26 51 76 163 84 191 4 12 11 22 15 22 4 0 112 -52
239 -116z m-6098 -35 l57 -125 -151 -74 c-83 -41 -172 -86 -197 -101 -85 -50
-78 -53 -158 83 -68 115 -72 123 -54 136 38 28 418 212 432 210 8 -2 40 -60
71 -129z m-730 -374 c39 -69 69 -129 65 -134 -3 -6 -47 -36 -98 -67 -51 -31
-136 -88 -191 -127 -54 -38 -104 -70 -111 -71 -11 -1 -175 207 -175 223 0 8
396 281 437 300 1 1 34 -55 73 -124z m7477 43 c129 -83 293 -197 293 -204 0
-2 -36 -53 -81 -114 -50 -69 -85 -107 -92 -103 -7 4 -77 50 -157 103 -80 53
-164 107 -188 120 -33 19 -43 29 -40 45 4 18 127 235 133 235 2 0 61 -37 132
-82z m268 -8 c3 -5 2 -10 -4 -10 -5 0 -13 5 -16 10 -3 6 -2 10 4 10 5 0 13 -4
16 -10z m475 -154 c0 -11 -10 -30 -22 -43 l-22 -23 21 -28 c24 -33 19 -48 -18
-57 -24 -6 -27 -3 -32 32 -11 66 -8 83 25 123 33 39 48 38 48 -4z m-252 -183
c221 -170 263 -207 243 -215 -10 -3 -56 -49 -101 -101 l-83 -95 -103 81 c-56
45 -117 93 -135 107 -18 14 -44 34 -57 46 l-25 20 58 80 c97 132 106 144 110
144 3 0 44 -30 93 -67z m-8495 -62 c42 -60 77 -113 77 -118 0 -4 -33 -33 -72
-63 -40 -30 -142 -113 -227 -183 -84 -71 -157 -125 -160 -120 -4 4 -46 51 -94
104 -48 53 -87 100 -86 105 1 21 448 384 473 384 6 0 46 -49 89 -109z m8845
-225 c17 -17 32 -34 32 -38 0 -4 -41 -53 -91 -108 l-91 -100 -38 32 c-21 18
-39 39 -39 46 -1 7 33 55 74 107 41 51 75 101 75 111 0 19 6 15 78 -50z
m-9558 -27 c-20 -45 -37 -70 -71 -105 -66 -68 -60 -22 8 57 25 29 50 64 56 78
7 19 11 22 14 10 2 -8 -1 -26 -7 -40z m9919 -310 c117 -116 211 -215 209 -220
-2 -5 -48 -50 -103 -99 l-100 -89 -206 202 c-113 111 -207 208 -207 214 -2 16
166 203 183 203 6 0 107 -95 224 -211z m-9765 92 l91 -103 -209 -209 -208
-209 -42 37 c-132 118 -168 153 -164 163 6 19 422 430 431 427 5 -1 50 -49
101 -106z m10099 -448 c72 -82 208 -247 279 -342 l77 -100 -104 -75 c-56 -42
-109 -78 -117 -80 -8 -3 -47 39 -98 106 -47 62 -129 163 -183 226 -54 62 -97
117 -95 121 5 11 192 180 201 181 4 0 22 -16 40 -37z m-10532 -141 l29 -24
-42 -50 c-74 -86 -278 -341 -301 -375 -12 -18 -27 -32 -32 -31 -24 6 -224 154
-224 166 -1 19 140 201 297 385 l84 98 80 -73 c44 -40 93 -84 109 -96z m2368
-371 c116 -96 211 -175 211 -176 0 -1 -24 -48 -54 -106 -30 -57 -64 -132 -76
-166 -14 -38 -27 -60 -34 -57 -7 3 -34 -4 -60 -16 -26 -11 -51 -20 -56 -20 -8
0 -8 -2 -40 150 -48 227 -58 278 -74 355 -9 44 -21 98 -26 120 -19 84 -21 97
-11 93 5 -1 104 -81 220 -177z m8667 -138 c82 -116 214 -322 214 -332 0 -4
-17 -16 -37 -28 -21 -11 -56 -30 -78 -43 -22 -12 -59 -34 -83 -47 l-42 -24
-22 38 c-27 46 -185 283 -224 336 -24 33 -26 40 -13 52 28 28 194 144 206 145
7 0 42 -43 79 -97z m-11560 1 c57 -42 104 -78 104 -80 0 -3 -33 -53 -74 -112
-41 -59 -97 -145 -126 -192 -28 -47 -55 -89 -59 -93 -8 -8 -59 16 -106 49 -11
8 -25 14 -33 14 -7 0 -25 11 -40 25 -15 14 -32 25 -38 25 -6 0 -17 7 -24 15
-11 13 -9 22 6 53 10 20 24 42 30 47 7 6 31 42 55 80 41 67 65 103 139 208 21
29 39 45 48 42 8 -3 61 -39 118 -81z m-805 -597 c-10 -9 -11 -8 -5 6 3 10 9
15 12 12 3 -3 0 -11 -7 -18z m274 -47 c19 -11 52 -30 73 -42 20 -12 57 -33 82
-46 25 -14 47 -27 50 -29 2 -2 -19 -50 -47 -106 -29 -56 -77 -154 -108 -219
-46 -92 -62 -117 -81 -121 -13 -2 -21 0 -18 4 4 7 -95 59 -113 59 -10 0 -113
52 -113 57 0 20 225 463 235 463 2 0 20 -9 40 -20z m12592 -209 l113 -225 -28
-12 c-15 -7 -58 -27 -97 -44 -38 -17 -78 -35 -87 -40 -10 -6 -24 -10 -32 -10
-8 0 -57 85 -120 211 -58 116 -106 214 -106 218 0 4 17 16 38 28 50 27 100 56
142 82 19 11 42 20 50 19 8 -2 64 -101 127 -227z m-12845 -385 c40 -18 99 -45
131 -60 32 -14 57 -29 55 -34 -1 -4 -32 -80 -66 -167 -35 -88 -67 -169 -72
-180 -37 -92 -50 -133 -45 -146 3 -9 -2 -22 -12 -31 -17 -15 -26 -13 -126 20
-83 27 -110 33 -116 23 -6 -9 -13 -5 -24 13 -16 24 -16 29 9 103 33 98 99 276
123 328 10 22 29 68 42 103 13 34 25 62 26 62 0 0 34 -15 75 -34z m13046 -49
c53 -130 128 -326 157 -412 26 -78 31 -72 -95 -116 -63 -22 -121 -41 -128 -42
-8 -1 -20 17 -29 43 -15 47 -87 240 -103 275 -43 101 -90 217 -90 225 0 6 30
24 68 40 37 17 85 39 107 50 70 33 76 29 113 -63z m-13448 -181 c0 -3 -4 -8
-10 -11 -5 -3 -10 -1 -10 4 0 6 5 11 10 11 6 0 10 -2 10 -4z m-88 -58 c-7 -7
-12 -8 -12 -2 0 14 12 26 19 19 2 -3 -1 -11 -7 -17z m218 -398 c30 -11 65 -20
77 -20 12 0 24 -4 27 -9 4 -5 28 -15 56 -22 57 -15 64 -25 44 -65 -9 -16 -26
-69 -40 -119 -14 -49 -29 -103 -34 -120 -4 -16 -16 -59 -25 -95 -8 -36 -20
-81 -25 -101 -6 -20 -10 -46 -10 -57 0 -29 -14 -34 -57 -23 -21 5 -58 14 -83
20 -115 26 -150 35 -150 40 0 3 5 24 10 46 6 22 14 58 19 80 36 159 122 465
131 465 3 0 30 -9 60 -20z m13550 3 c0 -10 7 -38 16 -63 9 -25 23 -70 31 -100
92 -346 106 -410 89 -414 -6 -2 -33 -8 -61 -14 -27 -6 -81 -18 -118 -27 -38
-9 -71 -14 -73 -12 -3 2 -11 33 -19 68 -19 88 -80 318 -94 359 -35 98 -43 142
-30 151 8 5 21 9 29 9 8 0 51 13 95 29 96 35 135 39 135 14z m-13780 -153 c0
-5 -4 -10 -9 -10 -6 0 -13 5 -16 10 -3 6 1 10 9 10 9 0 16 -4 16 -10z m75
-572 c22 -5 60 -11 85 -14 25 -3 58 -11 73 -17 32 -14 32 1 -3 -192 -25 -138
-38 -232 -47 -329 l-6 -69 -61 7 c-34 3 -96 9 -139 13 -43 3 -80 9 -82 13 -7
11 17 205 46 375 7 39 12 84 11 100 0 17 6 54 15 83 15 50 18 53 42 46 14 -3
44 -11 66 -16z m13893 -40 c7 -35 17 -83 23 -108 16 -66 62 -431 55 -438 -2
-1 -46 -7 -97 -12 -52 -6 -110 -12 -130 -15 l-36 -6 -12 88 c-7 48 -15 99 -17
113 -3 14 -9 54 -14 90 -5 36 -13 92 -19 125 -6 33 -15 85 -21 115 -10 59 -5
70 37 70 23 0 95 16 143 31 14 4 36 8 50 8 24 1 27 -4 38 -61z m-10928 -68 c0
-5 -8 -10 -17 -10 -15 0 -16 2 -3 10 19 12 20 12 20 0z m11019 -614 c7 -8 15
-97 21 -227 5 -118 12 -231 14 -251 l4 -38 -139 0 -139 0 0 105 c0 57 -5 151
-10 207 -6 57 -12 122 -14 146 l-4 42 42 1 c22 0 75 6 116 13 100 18 96 18
109 2z m-13979 -15 l75 -6 -1 -40 c-1 -22 -6 -125 -12 -230 -6 -104 -11 -198
-12 -207 0 -16 -14 -18 -146 -18 -134 0 -145 1 -140 18 2 9 7 87 10 172 4 85
9 195 13 244 l6 88 66 -7 c36 -4 100 -10 141 -14z m2296 -376 c4 -33 13 -67
20 -75 7 -8 19 -55 27 -103 13 -81 12 -87 -4 -87 -24 0 -35 -19 -43 -74 -3
-27 -8 -52 -11 -54 -4 -5 -65 14 -385 118 -80 26 -185 60 -233 75 -48 15 -86
29 -85 30 2 2 77 28 168 59 408 138 511 173 517 180 13 13 22 -10 29 -69z
m-882 -255 c27 -9 526 -172 785 -257 74 -24 86 -32 92 -55 4 -16 4 -40 0 -55
l-7 -28 -895 0 -894 0 2 39 c3 42 10 51 58 65 17 5 68 23 115 41 47 17 105 38
130 46 25 8 54 19 65 24 11 5 40 16 65 24 25 8 83 29 130 46 47 18 96 36 110
40 102 35 191 68 197 73 8 9 11 9 47 -3z m1161 0 c3 -5 2 -10 -4 -10 -5 0 -13
5 -16 10 -3 6 -2 10 4 10 5 0 13 -4 16 -10z m-2521 -267 c3 -42 6 -110 6 -152
0 -42 5 -116 11 -164 6 -49 9 -91 6 -94 -5 -4 -197 -26 -251 -27 -35 -1 -31
-19 -45 244 -6 107 -13 212 -15 233 l-4 37 142 0 143 0 7 -77z m13960 40 c-2
-21 -9 -126 -14 -233 -14 -268 -8 -245 -61 -244 -24 0 -84 4 -133 9 l-89 8 7
96 c4 53 9 165 13 249 l6 152 137 0 138 0 -4 -37z m-13910 -655 c8 -100 26
-217 56 -383 25 -135 28 -119 -27 -132 -26 -6 -75 -16 -108 -23 -33 -7 -73
-16 -88 -21 -31 -9 -30 -12 -45 71 -37 197 -62 363 -76 493 l-6 47 48 1 c26 0
65 4 87 8 22 5 65 9 96 10 l56 1 7 -72z m13786 53 l75 -6 -3 -50 c-4 -77 -48
-360 -73 -472 -5 -23 -9 -54 -9 -69 0 -29 2 -29 -110 -4 -25 6 -67 14 -93 19
-27 4 -52 12 -57 17 -5 5 -3 42 6 89 34 186 44 248 66 404 l12 93 56 -7 c30
-4 89 -10 130 -14z m330 -597 c0 -8 -5 -12 -10 -9 -6 4 -8 11 -5 16 9 14 15
11 15 -7z m-11260 -107 c0 -5 -4 -5 -10 -2 -5 3 -10 14 -10 23 0 15 2 15 10 2
5 -8 10 -19 10 -23z m-2746 11 c2 -7 10 -40 16 -73 13 -59 53 -220 70 -280 5
-16 13 -46 18 -65 6 -19 17 -57 26 -85 8 -27 12 -52 8 -55 -4 -4 -41 -17 -82
-30 -41 -12 -95 -29 -119 -37 -50 -16 -71 -12 -71 14 0 10 -7 38 -16 63 -9 25
-23 70 -31 100 -43 161 -66 249 -74 285 -5 22 -13 56 -18 77 l-8 36 41 11 c22
5 66 15 96 21 30 7 69 15 85 20 44 12 55 11 59 -2z m13471 -18 c17 -4 59 -14
94 -21 l63 -14 -6 -35 c-11 -69 -65 -277 -107 -415 -11 -38 -25 -87 -31 -107
-6 -21 -15 -38 -21 -38 -6 0 -36 8 -66 19 -31 10 -82 26 -113 36 -32 9 -60 20
-62 24 -3 4 4 36 16 72 21 68 24 78 58 204 26 95 47 180 65 262 7 30 9 31 44
26 20 -3 50 -8 66 -13z m495 -11 c0 -5 -4 -9 -10 -9 -5 0 -10 7 -10 16 0 8 5
12 10 9 6 -3 10 -10 10 -16z m-11120 -35 c0 -8 -4 -12 -10 -9 -5 3 -10 10 -10
16 0 5 5 9 10 9 6 0 10 -7 10 -16z m471 -220 c12 -14 11 -16 -5 -13 -11 2 -21
10 -24 17 -5 17 13 15 29 -4z m-911 -101 c0 -14 -13 -29 -37 -44 -33 -19 -205
-119 -310 -180 -18 -11 -48 -27 -65 -38 -54 -31 -281 -162 -313 -181 -16 -10
-102 -59 -190 -110 -88 -51 -173 -100 -190 -110 -16 -10 -70 -41 -120 -70 -49
-29 -103 -60 -120 -70 -16 -9 -50 -29 -75 -44 -25 -14 -64 -36 -88 -49 -48
-24 -48 -24 -78 44 -12 27 -7 32 141 115 11 6 36 20 55 31 19 11 91 53 160 93
69 40 139 80 155 90 17 10 102 59 190 110 88 51 174 100 190 110 17 10 71 41
120 70 87 51 119 70 188 109 112 64 164 95 177 107 8 7 49 30 90 52 l75 39 22
-26 c13 -14 23 -36 23 -48z m-220 27 c0 -5 -4 -10 -10 -10 -5 0 -10 5 -10 10
0 6 5 10 10 10 6 0 10 -4 10 -10z m11694 -29 c4 -5 3 -17 0 -26 -5 -13 -8 -14
-15 -3 -5 7 -9 19 -9 26 0 14 16 16 24 3z m-114 -141 c0 -5 -5 -10 -11 -10 -5
0 -7 5 -4 10 3 6 8 10 11 10 2 0 4 -4 4 -10z m-11240 -52 c33 -55 31 -59 -54
-108 -17 -10 -87 -50 -156 -90 -69 -40 -140 -81 -157 -91 -18 -11 -48 -27 -65
-38 -42 -23 -273 -158 -313 -181 -16 -10 -70 -41 -120 -70 -49 -29 -105 -61
-122 -71 -64 -37 -100 -57 -223 -129 -69 -40 -138 -80 -155 -90 -16 -9 -58
-34 -93 -54 -69 -41 -79 -40 -107 17 -8 16 -15 31 -15 33 0 1 48 30 108 64
113 66 117 68 257 150 50 29 105 61 123 71 17 11 47 27 65 38 49 28 278 161
312 181 40 23 272 158 310 180 51 29 195 114 285 168 47 28 88 51 93 51 4 1
16 -14 27 -31z m725 2 c10 -11 16 -20 13 -20 -3 0 -13 9 -23 20 -10 11 -16 20
-13 20 3 0 13 -9 23 -20z m-3057 -127 c6 -16 29 -80 52 -143 23 -63 46 -126
52 -140 6 -14 14 -34 18 -45 4 -11 24 -58 44 -104 34 -79 35 -84 19 -97 -10
-7 -21 -14 -26 -14 -4 0 -46 -18 -94 -40 -48 -23 -95 -42 -105 -43 -25 -3 -67
95 -207 480 -16 46 -26 85 -21 88 9 5 239 83 251 84 4 1 11 -11 17 -26z m3071
-23 c14 -29 16 -40 6 -40 -7 0 -17 18 -23 40 -5 22 -8 40 -6 40 2 0 12 -18 23
-40z m10054 -7 c109 -37 115 -42 98 -85 -5 -13 -18 -48 -29 -78 -36 -98 -84
-224 -102 -265 -9 -22 -30 -73 -45 -112 -16 -40 -33 -73 -40 -73 -6 0 -38 13
-71 29 -32 15 -75 34 -95 41 -75 27 -76 29 -36 122 20 46 48 115 62 153 15 39
31 79 35 90 16 40 42 111 57 155 8 25 16 51 19 59 2 8 11 10 22 6 9 -4 65 -23
125 -42z m-9717 -10 c-8 -8 -36 10 -36 25 0 13 3 12 20 -3 11 -10 18 -20 16
-22z m-1050 -347 c-7 -6 -26 -39 -41 -74 -27 -61 -28 -62 -46 -43 -18 19 -29
15 -688 -249 -546 -218 -672 -265 -682 -254 -16 19 -8 27 83 79 46 26 97 55
113 65 17 10 86 50 155 90 123 72 159 92 223 129 17 10 73 42 122 71 50 29
105 61 123 71 69 40 101 59 222 129 69 40 134 78 145 84 139 77 189 114 213
156 14 25 35 59 46 75 l21 30 3 -174 c2 -140 0 -176 -12 -185z m-1996 -469
c58 -117 105 -216 105 -221 0 -5 -13 -17 -30 -26 -16 -10 -69 -40 -117 -68
l-88 -51 -54 102 c-60 112 -176 352 -176 364 0 5 15 14 33 22 104 45 164 72
177 81 35 21 46 7 150 -203z m12435 168 c30 -14 80 -36 110 -50 l55 -25 -17
-37 c-30 -66 -204 -408 -212 -416 -4 -4 -46 14 -92 41 -46 27 -95 55 -109 63
-14 8 -27 15 -29 16 -9 6 214 433 226 433 7 0 37 -11 68 -25z m-12129 -722
c15 -27 74 -117 131 -202 57 -85 100 -157 96 -161 -4 -3 -35 -26 -68 -50 -33
-24 -77 -57 -98 -73 -21 -16 -44 -26 -51 -24 -15 6 -83 104 -208 298 l-77 119
27 18 c15 11 52 32 82 49 30 16 71 40 90 51 19 12 38 22 42 22 3 0 18 -21 34
-47z m11724 7 c14 -10 30 -19 35 -21 24 -9 126 -72 131 -80 7 -12 -221 -369
-277 -433 -5 -5 -31 8 -61 31 -29 22 -77 57 -106 77 -29 21 -52 41 -50 45 2 3
63 97 137 208 142 212 138 209 191 173z m-295 -566 c69 -51 102 -80 97 -88
-125 -167 -365 -458 -384 -465 -5 -1 -35 21 -66 51 -31 29 -74 68 -95 86 -44
37 -48 26 44 132 77 88 270 332 276 347 3 7 9 13 14 13 5 0 56 -34 114 -76z
m-520 -514 c22 -23 64 -60 93 -83 28 -23 52 -46 52 -52 0 -8 -297 -313 -397
-407 l-42 -39 -32 30 c-18 17 -36 31 -40 31 -5 0 -9 6 -9 13 0 7 -26 38 -59
68 l-58 56 27 16 c15 9 114 104 221 212 107 107 196 195 199 195 3 0 24 -18
45 -40z m215 -163 c0 -5 -4 -5 -10 -2 -5 3 -10 14 -10 23 0 15 2 15 10 2 5 -8
10 -19 10 -23z m100 -53 c0 -8 -4 -12 -10 -9 -5 3 -10 10 -10 16 0 5 5 9 10 9
6 0 10 -7 10 -16z m-843 -276 c22 -29 63 -79 92 -110 l52 -56 -98 -84 c-184
-157 -366 -298 -385 -297 -10 0 -144 171 -156 199 -1 4 44 42 100 85 165 126
340 277 346 297 2 10 6 18 7 18 1 0 20 -24 42 -52z m-527 -514 c39 -52 73
-101 76 -108 3 -7 -34 -39 -88 -76 -123 -85 -318 -210 -328 -210 -10 0 -132
210 -128 221 2 7 387 268 395 269 2 0 35 -43 73 -96z m-4234 -111 c-4 -21 -14
-67 -22 -103 -28 -122 -50 -220 -65 -290 -6 -30 -15 -68 -20 -84 -5 -16 -9
-41 -9 -55 0 -41 -27 -73 -58 -69 l-27 3 0 284 0 284 95 33 c52 18 99 33 104
33 4 1 5 -16 2 -36z m3544 -335 c60 -106 62 -112 44 -125 -28 -21 -437 -223
-451 -223 -7 0 -13 5 -13 10 0 6 -9 29 -19 53 -11 23 -33 72 -49 109 l-30 67
61 28 c92 42 351 173 362 184 20 19 33 5 95 -103z m-620 -178 c0 -5 11 -33 24
-62 59 -131 66 -147 66 -156 0 -6 -30 -22 -67 -37 -38 -15 -81 -33 -98 -40
-56 -24 -274 -105 -340 -126 -22 -7 -45 -17 -52 -22 -17 -12 -18 -10 -82 194
l-18 56 66 22 c36 12 75 26 86 31 11 4 47 18 80 30 33 12 69 26 80 30 11 4 40
16 65 25 55 20 110 44 130 55 21 12 60 12 60 0z m-647 -348 c22 -64 41 -123
44 -129 3 -8 -3 -13 -13 -13 -10 0 -43 -9 -73 -20 -74 -25 -436 -117 -481
-122 l-35 -3 -13 60 c-21 105 -31 149 -38 171 -5 19 1 23 68 38 40 10 118 29
173 43 93 23 121 30 200 52 17 5 48 16 70 24 22 8 45 15 50 16 6 0 27 -52 48
-117z m-3798 28 c76 -21 110 -29 182 -45 29 -7 32 -11 27 -34 -3 -14 -10 -48
-16 -76 -6 -27 -14 -63 -19 -79 -5 -16 -9 -40 -9 -54 0 -23 -3 -24 -37 -19
-65 11 -242 56 -411 104 l-62 19 102 108 c115 122 96 116 243 76z m495 -110
c151 -26 247 -41 378 -57 51 -6 53 -7 47 -31 -3 -14 -10 -69 -15 -123 -4 -54
-10 -102 -13 -106 -9 -14 -223 13 -462 57 -33 6 -79 14 -102 17 -24 3 -43 11
-43 17 0 6 7 43 15 81 9 39 18 86 22 105 11 63 16 68 70 59 26 -5 73 -13 103
-19z m2580 -32 c6 -29 16 -75 21 -103 6 -27 14 -62 18 -76 8 -25 7 -26 -58
-38 -36 -7 -86 -16 -111 -21 -43 -8 -114 -19 -252 -40 -35 -5 -90 -12 -124
-15 l-60 -6 -12 89 c-7 49 -12 110 -12 136 l0 46 48 0 c27 0 73 4 103 9 30 5
83 14 119 20 171 26 217 34 240 41 57 19 67 14 80 -42z m-1867 -58 c51 -6 146
-11 212 -13 l120 -2 3 -137 3 -136 -38 4 c-21 2 -126 9 -233 15 -248 13 -261
15 -256 43 3 11 10 69 17 129 l13 107 34 0 c18 0 75 -5 125 -10z m1151 -42 c3
-29 8 -81 11 -116 3 -35 8 -69 11 -76 3 -8 -3 -16 -12 -20 -15 -6 -170 -16
-453 -29 l-44 -2 1 129 c0 91 4 131 13 136 6 5 73 9 148 10 75 1 163 5 196 9
126 17 123 18 129 -41z"/>
<path d="M10599 11533 c-14 -3 -17 -28 -21 -171 l-5 -167 -222 -585 c-386
-1014 -611 -1580 -881 -2215 -305 -717 -520 -1197 -674 -1511 -152 -306 -179
-355 -217 -387 -44 -38 -119 -67 -172 -67 -36 0 -87 -49 -87 -84 0 -14 -34
-244 -75 -513 -137 -899 -138 -904 -139 -1073 -1 -280 65 -484 174 -540 40
-20 421 -80 512 -80 41 0 50 4 72 32 13 18 36 60 51 93 33 75 60 105 96 105
16 0 75 -9 131 -20 195 -38 521 -81 617 -82 182 -1 369 27 931 137 345 67 483
85 668 85 330 0 569 -63 742 -197 73 -56 109 -77 117 -69 16 15 -35 102 -98
170 -58 62 -65 73 -42 65 36 -12 180 -57 313 -99 58 -18 143 -45 190 -60 47
-15 132 -42 190 -60 137 -42 160 -51 160 -59 0 -4 -11 -35 -25 -69 -14 -34
-25 -68 -25 -76 0 -8 24 -27 54 -42 60 -30 73 -27 99 25 11 21 273 493 339
609 10 17 27 48 38 68 25 43 19 54 -52 90 l-48 24 -37 -50 c-20 -27 -43 -50
-50 -50 -11 0 -63 26 -138 70 -16 10 -51 29 -77 44 -111 61 -146 80 -201 112
-32 19 -60 34 -62 34 -2 0 -58 32 -125 70 -67 39 -123 70 -125 70 -2 0 -42 23
-90 50 -48 27 -88 50 -90 50 -2 0 -30 15 -62 34 -55 32 -90 51 -200 112 -27
15 -61 34 -78 44 -16 10 -50 29 -75 42 -25 14 -63 35 -85 48 -22 12 -65 36
-95 53 -30 16 -56 31 -58 33 -2 1 8 29 21 62 14 33 22 64 18 69 -12 18 -102
62 -115 57 -8 -3 -16 -13 -19 -22 -5 -16 -27 -55 -107 -197 -15 -27 -38 -68
-50 -90 -13 -22 -34 -60 -48 -84 l-24 -44 23 -18 c13 -10 41 -26 63 -36 43
-19 34 -24 96 57 l26 33 47 -27 c26 -14 66 -37 90 -50 23 -13 65 -36 92 -51
28 -15 70 -39 95 -53 25 -13 59 -32 75 -42 17 -10 51 -29 78 -44 110 -61 145
-80 200 -112 32 -19 60 -34 62 -34 2 0 30 -15 62 -34 55 -32 90 -51 201 -112
26 -15 61 -34 77 -44 17 -10 51 -29 78 -44 26 -14 68 -38 95 -52 26 -15 61
-34 77 -44 17 -10 57 -32 90 -50 103 -56 145 -82 145 -88 0 -4 -11 -20 -23
-36 l-23 -29 -60 18 c-32 9 -70 21 -84 25 -14 4 -59 18 -100 30 -41 12 -86 25
-100 30 -14 4 -45 13 -70 20 -25 7 -56 16 -70 20 -14 4 -59 18 -100 30 -41 12
-86 25 -100 30 -14 4 -43 13 -65 19 -47 13 -169 49 -205 61 -14 4 -43 13 -65
19 -47 13 -169 49 -205 61 -14 4 -43 13 -65 19 -47 13 -169 49 -205 61 -14 4
-43 13 -65 19 -47 13 -169 49 -205 61 -14 4 -45 13 -70 20 -25 7 -57 17 -73
22 -19 8 -31 7 -41 -1 -24 -20 -57 -91 -49 -105 5 -7 64 -62 131 -122 132
-116 135 -122 50 -123 -49 -1 -180 -27 -599 -117 -330 -70 -508 -104 -629
-118 l-55 -7 50 43 c431 369 785 824 1015 1303 212 444 321 816 381 1310 16
134 23 637 10 765 -43 429 -124 776 -259 1115 -64 162 -83 203 -158 350 -155
307 -352 598 -567 837 l-88 99 80 177 c44 97 105 233 137 302 31 69 84 206
116 305 55 164 60 186 56 250 -3 59 -11 86 -52 173 -53 109 -62 121 -87 115z
m-226 -1692 c235 -293 391 -554 542 -906 45 -104 124 -330 150 -427 30 -116
42 -164 54 -223 7 -33 16 -78 21 -100 35 -168 70 -517 70 -705 0 -188 -35
-537 -70 -705 -5 -22 -14 -67 -21 -100 -23 -116 -60 -248 -104 -379 -60 -182
-113 -311 -196 -481 -179 -366 -408 -685 -714 -990 -153 -154 -359 -331 -465
-401 -39 -26 -43 -27 -108 -16 -243 40 -468 152 -572 284 -96 120 -125 213
-145 466 -44 536 -41 906 11 1160 37 187 66 265 361 997 295 730 471 1171 713
1790 84 215 193 489 242 610 50 121 94 231 99 244 12 31 16 27 132 -118z
m-2023 -4074 c0 -5 -4 -5 -10 -2 -5 3 -10 14 -10 23 0 15 2 15 10 2 5 -8 10
-19 10 -23z m100 -53 c0 -8 -4 -12 -10 -9 -5 3 -10 10 -10 16 0 5 5 9 10 9 6
0 10 -7 10 -16z"/>
<path d="M12850 11188 c-19 -11 -43 -28 -53 -37 -18 -17 -18 -20 7 -81 14 -35
25 -64 23 -65 -1 -1 -63 -37 -137 -80 -74 -43 -150 -86 -167 -96 -18 -11 -49
-28 -68 -39 -19 -11 -50 -28 -67 -39 -18 -10 -105 -60 -193 -111 -88 -51 -175
-101 -192 -111 -18 -11 -49 -28 -68 -39 -19 -11 -50 -28 -67 -39 -18 -10 -105
-60 -193 -111 -88 -51 -175 -101 -192 -111 -18 -11 -48 -27 -65 -38 -18 -10
-62 -35 -97 -56 l-64 -38 -25 29 c-13 16 -34 42 -48 57 l-23 28 -52 -28 c-58
-32 -68 -47 -49 -77 8 -11 54 -91 103 -176 50 -85 139 -240 200 -345 60 -104
121 -211 136 -237 14 -27 30 -48 36 -48 5 1 33 14 60 30 57 32 60 45 29 123
-17 42 -17 50 -4 58 35 21 106 63 290 169 107 62 210 121 228 131 17 11 47 27
65 38 17 10 88 51 157 91 146 84 177 103 225 130 19 11 50 28 68 39 17 10 104
60 192 111 88 51 175 101 193 111 17 11 49 28 70 40 20 12 43 26 51 32 14 12
23 4 82 -72 l27 -34 52 29 c29 16 54 34 57 40 2 6 -16 47 -40 90 -70 125 -236
412 -283 491 -24 40 -44 74 -44 77 0 11 -107 180 -115 182 -6 1 -26 -7 -45
-18z m169 -493 c16 -33 27 -63 25 -67 -2 -4 -17 -13 -32 -21 -15 -7 -43 -23
-62 -34 -19 -11 -107 -62 -195 -113 -88 -51 -175 -101 -192 -111 -18 -11 -49
-28 -68 -39 -19 -11 -50 -28 -67 -39 -18 -10 -105 -60 -193 -111 -182 -105
-212 -122 -257 -149 -118 -68 -430 -248 -465 -267 l-43 -24 -28 38 c-27 38
-60 118 -51 125 2 2 38 23 79 47 110 63 160 91 330 190 146 84 177 103 225
130 19 11 50 28 68 39 17 10 104 60 192 111 88 51 175 101 193 111 17 11 48
28 67 39 43 25 61 35 255 147 178 103 167 104 219 -2z"/>
<path d="M11887 8133 c-4 -3 -7 -304 -7 -669 0 -743 -8 -674 80 -674 26 0 52
6 58 13 5 6 14 37 19 67 l8 55 840 5 c462 3 872 4 911 2 l71 -4 6 -54 c3 -31
11 -62 18 -70 14 -17 110 -19 127 -2 9 9 12 165 11 648 -1 349 -4 646 -8 660
-6 23 -13 25 -66 28 -70 4 -85 -9 -85 -72 0 -23 -4 -47 -8 -54 -7 -10 -196
-12 -913 -10 l-904 3 -8 45 c-18 99 -11 90 -81 90 -34 0 -66 -3 -69 -7z m1197
-309 c10 -25 -1 -29 -14 -5 -6 12 -7 21 -1 21 5 0 12 -7 15 -16z m781 -149 l0
-80 -911 -3 -912 -2 -6 43 c-4 24 -5 50 -2 58 2 8 7 26 10 42 l6 27 908 -2
907 -3 0 -80z m-705 -183 c-13 -2 -30 4 -39 12 -14 15 -14 18 -1 26 10 6 22 3
38 -13 l24 -22 -22 -3z m710 -221 c0 -44 -4 -83 -10 -86 -5 -3 -416 -6 -912
-5 l-903 0 -8 32 c-6 21 -5 53 3 86 l11 52 910 0 909 0 0 -79z"/>
<path d="M12115 4034 c-4 -36 -4 -73 1 -83 5 -10 109 -107 232 -215 122 -108
222 -200 222 -204 0 -4 -7 -27 -16 -51 -8 -24 -13 -49 -11 -55 3 -6 28 -24 57
-40 44 -24 54 -26 65 -15 20 21 185 320 185 335 0 18 -100 75 -116 66 -7 -4
-29 -28 -49 -54 -20 -27 -40 -48 -46 -48 -6 0 -92 71 -192 159 -291 254 -311
271 -319 271 -3 0 -10 -30 -13 -66z"/>
<path d="M4370 3498 c-10 -18 -17 -34 -15 -36 5 -5 54 50 55 61 0 18 -22 4
-40 -25z"/>
</g>
</svg>
